HIERARCHY
ROOT Hips
{
	OFFSET -0.001795 -0.223333 0.028219
	CHANNELS 6 Xposition Yposition Zposition Zrotation Yrotation Xrotation 
	JOINT LeftUpLeg
	{
		OFFSET 0.069520 -0.091406 -0.006815
		CHANNELS 3 Zrotation Yrotation Xrotation
		JOINT LeftLeg
		{
			OFFSET 0.034277 -0.375199 -0.004496
			CHANNELS 3 Zrotation Yrotation Xrotation
			JOINT LeftFoot
			{
				OFFSET -0.013596 -0.397961 -0.043693
				CHANNELS 3 Zrotation Yrotation Xrotation
				JOINT LeftToe
				{
					OFFSET 0.026358 -0.055791 0.119288
					CHANNELS 3 Zrotation Yrotation Xrotation
					End Site
					{
						OFFSET 0.000000 0.000000 0.000000
					}
				}
			}
		}
	}
	JOINT RightUpLeg
	{
		OFFSET -0.067670 -0.090522 -0.004320
		CHANNELS 3 Zrotation Yrotation Xrotation
		JOINT RightLeg
		{
			OFFSET -0.038290 -0.382569 -0.008850
			CHANNELS 3 Zrotation Yrotation Xrotation
			JOINT RightFoot
			{
				OFFSET 0.015774 -0.398415 -0.042312
				CHANNELS 3 Zrotation Yrotation Xrotation
				JOINT RightToe
				{
					OFFSET -0.025372 -0.048144 0.123348
					CHANNELS 3 Zrotation Yrotation Xrotation
					End Site
					{
						OFFSET 0.000000 0.000000 0.000000
					}
				}
			}
		}
	}
	JOINT Spine
	{
		OFFSET -0.002533 0.108963 -0.026696
		CHANNELS 3 Zrotation Yrotation Xrotation
		JOINT Spine1
		{
			OFFSET 0.005487 0.135180 0.001092
			CHANNELS 3 Zrotation Yrotation Xrotation
			JOINT Spine2
			{
				OFFSET 0.001457 0.052922 0.025425
				CHANNELS 3 Zrotation Yrotation Xrotation
				JOINT Neck
				{
					OFFSET -0.002778 0.213870 -0.042857
					CHANNELS 3 Zrotation Yrotation Xrotation
					JOINT Head
					{
						OFFSET 0.005152 0.064970 0.051349
						CHANNELS 3 Zrotation Yrotation Xrotation
						End Site
						{
							OFFSET 0.000000 0.000000 0.000000
						}
					}
				}
				JOINT LeftShoulder
				{
					OFFSET 0.078845 0.121749 -0.034090
					CHANNELS 3 Zrotation Yrotation Xrotation
					JOINT LeftArm
					{
						OFFSET 0.090977 0.030469 -0.008868
						CHANNELS 3 Zrotation Yrotation Xrotation
						JOINT LeftForeArm
						{
							OFFSET 0.259612 -0.012772 -0.027456
							CHANNELS 3 Zrotation Yrotation Xrotation
							JOINT LeftHand
							{
								OFFSET 0.249234 0.008986 -0.001171
								CHANNELS 3 Zrotation Yrotation Xrotation
								End Site
								{
									OFFSET 0.000000 0.000000 0.000000
								}
							}
						}
					}
				}
				JOINT RightShoulder
				{
					OFFSET -0.081759 0.118833 -0.038615
					CHANNELS 3 Zrotation Yrotation Xrotation
					JOINT RightArm
					{
						OFFSET -0.096012 0.032551 -0.009143
						CHANNELS 3 Zrotation Yrotation Xrotation
						JOINT RightForeArm
						{
							OFFSET -0.253742 -0.013329 -0.021401
							CHANNELS 3 Zrotation Yrotation Xrotation
							JOINT RightHand
							{
								OFFSET -0.255298 0.007772 -0.005559
								CHANNELS 3 Zrotation Yrotation Xrotation
								End Site
								{
									OFFSET 0.000000 0.000000 0.000000
								}
							}
						}
					}
				}
			}
		}
	}
}
MOTION
Frames: 14
Frame Time: 0.050000
0.452316 0.876872 -0.058194 -5.065910 5.095061 12.289938 25.107851 3.399244 -39.939064 -13.992664 4.211642 32.468151 -7.852497 -5.279451 18.245249 0.000000 0.000000 0.000000 -20.152770 -2.247644 -30.891917 10.219654 -2.857916 23.917516 -5.193877 -14.924872 22.223917 0.000000 0.000000 0.000000 -2.009034 -2.037549 44.518375 -3.527214 1.353434 -32.201610 -4.306792 8.992148 22.860308 22.596127 -4.180668 -46.041688 0.000000 0.000000 0.000000 -20.547452 -32.511836 13.972069 -36.249256 -28.941273 3.038128 -6.762199 -27.469303 2.507378 0.000000 0.000000 0.000000 32.960128 13.843430 13.089298 46.864057 32.472905 4.779148 5.680174 33.337876 3.563156 0.000000 0.000000 0.000000 
0.453943 0.877576 -0.058066 -4.908670 4.160431 12.507385 25.744041 3.740365 -39.293746 -13.768610 4.187127 31.728926 -11.629404 -10.734986 19.332596 0.000000 0.000000 0.000000 -20.101760 -2.151275 -31.682224 10.468586 -2.885264 24.242711 -6.159488 -16.547100 22.462771 0.000000 0.000000 0.000000 -1.594354 -2.037821 44.414888 -3.855318 1.393124 -32.018550 -4.379573 8.364813 22.795606 22.609670 -4.414553 -45.426536 0.000000 0.000000 0.000000 -20.518741 -32.450361 14.278414 -35.989910 -28.017060 2.697494 -5.874772 -27.857192 2.348562 0.000000 0.000000 0.000000 32.895923 14.308953 12.942411 46.929130 32.174407 4.803518 6.582115 32.134273 3.599568 0.000000 0.000000 0.000000 
0.459098 0.879439 -0.058269 -4.899387 3.289308 12.515647 25.906519 3.951960 -38.876799 -13.707167 4.269883 31.702446 -13.593948 -13.454184 19.971832 0.000000 0.000000 0.000000 -20.104618 -2.074072 -32.390589 10.572270 -2.818873 24.000322 -7.186855 -18.257141 25.368858 0.000000 0.000000 0.000000 -0.734695 -2.200526 43.477915 -3.870436 1.393510 -31.742980 -4.544368 8.370142 23.004688 22.412956 -4.266869 -45.891453 0.000000 0.000000 0.000000 -20.289760 -32.136906 14.179833 -36.435427 -27.347360 2.520494 -5.484527 -28.286616 2.294565 0.000000 0.000000 0.000000 32.798852 13.894228 12.440454 46.928622 31.663658 4.608340 7.517896 31.404486 3.744748 0.000000 0.000000 0.000000 
0.468644 0.882045 -0.058831 -4.756237 1.829653 12.479359 26.358002 4.364424 -38.228014 -14.204939 4.627316 31.384340 -17.408559 -17.634079 22.463120 0.000000 0.000000 0.000000 -20.157448 -1.809055 -32.112436 9.944320 -2.388147 22.642631 -7.247510 -18.575077 26.245132 0.000000 0.000000 0.000000 -0.330978 -2.068600 42.747058 -3.891376 1.393660 -31.125704 -4.521522 8.283042 23.218956 21.676335 -4.091781 -45.730267 0.000000 0.000000 0.000000 -20.026675 -31.514004 14.000826 -36.260496 -26.989400 2.331105 -4.836435 -29.228058 2.216707 0.000000 0.000000 0.000000 31.691605 14.037158 11.951754 47.191328 31.201233 4.613922 7.405122 31.289283 3.675428 0.000000 0.000000 0.000000 
0.482137 0.886041 -0.059511 -4.172600 0.852266 12.242058 25.783228 4.285625 -37.310792 -14.340934 4.771183 31.181692 -20.184193 -21.711657 22.578876 0.000000 0.000000 0.000000 -20.717418 -1.758236 -31.652290 9.307601 -2.039810 21.380167 -7.961697 -19.689759 28.459982 0.000000 0.000000 0.000000 0.325655 -2.144693 42.161559 -4.307279 1.456624 -30.951483 -4.430821 7.895686 23.874564 22.000663 -4.414436 -45.507140 0.000000 0.000000 0.000000 -20.398267 -31.629197 14.410807 -36.161867 -26.507368 2.092420 -3.614410 -30.075960 1.981571 0.000000 0.000000 0.000000 31.406617 13.909453 11.428088 45.885845 31.222855 4.364660 7.466843 30.247941 3.495703 0.000000 0.000000 0.000000 
0.498967 0.888859 -0.060534 -3.845116 -0.490508 11.875966 25.702884 4.434168 -36.322355 -14.278546 4.927012 31.319999 -24.727753 -27.867887 23.320664 0.000000 0.000000 0.000000 -21.294453 -1.628261 -31.009197 8.330000 -1.592353 19.937799 -7.477321 -19.274744 30.138925 0.000000 0.000000 0.000000 0.208155 -1.827423 41.541372 -4.203451 1.454555 -29.739261 -4.274620 7.833585 23.788273 21.247595 -4.329140 -44.905592 0.000000 0.000000 0.000000 -19.803929 -31.046263 14.146016 -36.332008 -26.613379 2.088934 -2.834316 -30.771373 1.828212 0.000000 0.000000 0.000000 30.656515 14.348228 11.266681 45.845450 31.229668 4.486901 5.913309 30.061875 3.042465 0.000000 0.000000 0.000000 
0.518564 0.891974 -0.061792 -3.594504 -1.769202 11.272720 25.220594 4.399960 -35.064364 -13.804154 4.906287 31.474751 -28.338615 -33.294107 23.203453 0.000000 0.000000 0.000000 -21.903506 -1.512152 -30.235384 7.353484 -1.196637 18.422794 -7.034612 -18.964939 32.571752 0.000000 0.000000 0.000000 0.193218 -1.587775 41.182014 -4.188900 1.446619 -29.610902 -3.951337 8.011435 24.292478 21.318411 -4.476233 -44.770640 0.000000 0.000000 0.000000 -19.468670 -31.049800 14.199681 -36.722025 -26.504915 2.038784 -2.842150 -31.085315 1.857092 0.000000 0.000000 0.000000 30.199804 14.212737 10.897046 45.368085 31.187826 4.380686 5.144197 29.288303 2.738011 0.000000 0.000000 0.000000 
0.540894 0.893936 -0.063999 -3.494286 -3.446325 11.239740 24.146853 4.375292 -34.606057 -13.156849 4.871216 31.609991 -30.305304 -36.438511 22.863733 0.000000 0.000000 0.000000 -22.551448 -1.281602 -29.187926 5.944731 -0.713304 15.211765 -5.568447 -17.544879 34.080989 0.000000 0.000000 0.000000 -0.150124 -1.140366 40.387153 -4.035173 1.417036 -28.659756 -3.997510 7.994014 23.942173 20.289263 -4.303818 -44.015172 0.000000 0.000000 0.000000 -19.112634 -30.845660 14.238867 -36.350619 -26.408559 1.949684 -3.270578 -31.361671 2.006107 0.000000 0.000000 0.000000 30.599826 14.498564 10.791519 45.286537 31.376563 4.542630 4.028411 29.250443 2.438204 0.000000 0.000000 0.000000 
0.565136 0.895254 -0.067774 -3.478950 -5.314866 11.116638 23.193040 4.390947 -34.002358 -13.125738 5.119337 31.649717 -30.743597 -38.350382 21.447354 0.000000 0.000000 0.000000 -23.166280 -1.034667 -28.407970 4.857818 -0.418020 11.711023 -5.024131 -17.405134 36.894003 0.000000 0.000000 0.000000 -0.775826 -0.579300 40.122705 -3.861587 1.365168 -28.733909 -3.699906 8.023528 24.370781 19.747057 -4.359507 -43.403181 0.000000 0.000000 0.000000 -19.674621 -31.291479 14.887051 -35.229200 -26.205049 1.703901 -3.433819 -30.224833 1.987286 0.000000 0.000000 0.000000 31.092501 15.057939 10.892745 45.013291 31.707782 4.645269 3.372742 28.923068 2.223913 0.000000 0.000000 0.000000 
0.589683 0.896667 -0.073390 -3.275005 -6.845480 11.176772 21.857023 4.228797 -33.664811 -13.232819 5.302444 31.086746 -30.399864 -39.243368 19.909611 0.000000 0.000000 0.000000 -23.882875 -0.902754 -28.322369 3.544549 -0.187878 8.670679 -4.490605 -17.304080 40.275312 0.000000 0.000000 0.000000 -1.081888 -0.211978 39.569841 -4.005098 1.379553 -27.715034 -3.799634 7.668079 23.918941 18.477489 -4.047541 -42.911748 0.000000 0.000000 0.000000 -19.253136 -31.523468 15.242035 -34.606679 -26.406946 1.670467 -3.945198 -30.007479 2.122202 0.000000 0.000000 0.000000 31.415792 15.405467 10.675608 45.928613 32.199386 5.203449 2.451484 28.526923 1.948674 0.000000 0.000000 0.000000 
0.612074 0.897608 -0.080075 -3.509644 -8.214195 11.321481 21.112545 4.233609 -33.425510 -14.028935 5.698817 30.119361 -29.203228 -38.499668 18.682000 0.000000 0.000000 0.000000 -24.629046 -0.800020 -28.469684 3.177674 -0.167067 6.026937 -4.501642 -17.726691 43.289882 0.000000 0.000000 0.000000 -1.837685 0.318123 39.771287 -3.743537 1.306692 -27.515249 -3.578018 7.594853 23.394552 18.028021 -4.064298 -42.172244 0.000000 0.000000 0.000000 -19.057305 -31.947164 15.643884 -34.444697 -26.959021 1.813001 -3.823661 -29.552233 2.069107 0.000000 0.000000 0.000000 31.674023 16.185874 10.942004 46.932497 32.302347 5.609954 2.143899 28.575965 1.865862 0.000000 0.000000 0.000000 
0.629564 0.898647 -0.086644 -4.206256 -9.255769 11.778998 20.736289 4.354562 -33.594501 -14.103310 5.756321 29.345911 -28.197611 -37.972983 17.530799 0.000000 0.000000 0.000000 -24.709261 -0.669303 -29.240374 3.488542 -0.227233 4.470361 -5.040354 -18.512613 44.857842 0.000000 0.000000 0.000000 -2.168350 0.617914 39.697148 -4.008397 1.341000 -27.824572 -3.336465 8.284087 23.181370 17.729777 -4.197089 -40.874609 0.000000 0.000000 0.000000 -19.213280 -32.385991 15.907090 -33.805039 -27.656737 1.934763 -5.130455 -28.893362 2.348163 0.000000 0.000000 0.000000 32.123482 16.427619 11.255481 48.715160 32.508118 6.100421 1.311333 30.071162 1.821739 0.000000 0.000000 0.000000 
0.641364 0.899227 -0.092375 -4.740758 -9.873650 12.019557 20.753261 4.478522 -33.493062 -14.484199 5.850827 28.395869 -27.599052 -37.539606 16.949052 0.000000 0.000000 0.000000 -24.893208 -0.560009 -29.055464 4.273080 -0.318318 4.114186 -5.384250 -18.952696 45.169542 0.000000 0.000000 0.000000 -2.679451 0.928907 39.639607 -3.573045 1.250391 -28.046680 -3.430485 9.120833 23.053740 17.119662 -3.916540 -40.597379 0.000000 0.000000 0.000000 -19.508025 -32.690542 16.017590 -32.930251 -27.813494 1.897424 -4.916405 -29.193014 2.313271 0.000000 0.000000 0.000000 32.187770 16.491682 11.556385 50.362700 33.087379 6.716478 1.097775 31.463498 1.927030 0.000000 0.000000 0.000000 
0.647904 0.898481 -0.097206 -5.488012 -9.746482 12.184032 21.394549 4.726031 -33.746953 -14.922849 5.964618 28.097376 -27.581598 -37.525679 16.947146 0.000000 0.000000 0.000000 -24.182348 -0.449143 -28.935667 4.751655 -0.372645 4.226729 -5.129133 -18.668513 43.997172 0.000000 0.000000 0.000000 -3.042168 1.049693 39.607816 -3.196999 1.178376 -28.382252 -3.117238 10.115222 23.000198 18.151409 -4.379567 -39.942138 0.000000 0.000000 0.000000 -19.789432 -33.055588 15.993378 -32.219205 -28.416581 2.001116 -5.879001 -28.690292 2.493240 0.000000 0.000000 0.000000 32.431683 16.263384 11.898927 51.582903 33.746274 7.215786 1.350668 32.856963 2.174443 0.000000 0.000000 0.000000 
